# Blender v2.90.1 OBJ File: 'klunk.blend1'
# www.blender.org
mtllib Escudo.mtl
o Plano
v 0.265566 -0.398753 -0.161671
v 0.265592 0.305016 -0.161673
v 0.134297 -0.398776 -0.130746
v 0.134201 0.305403 -0.130730
v 0.110231 0.486850 -0.126851
v 0.326370 0.326817 -0.181784
v 0.124165 0.610160 -0.136372
v 0.326685 -0.484054 -0.177615
v 0.135340 -0.471653 -0.130753
v 0.143991 -0.398880 -0.074058
v 0.279341 -0.398902 -0.105834
v 0.279315 0.306056 -0.105833
v 0.144086 0.305669 -0.074075
v 0.119730 0.487079 -0.070130
v 0.340383 0.325282 -0.126027
v 0.133569 0.610836 -0.079638
v 0.340544 -0.484306 -0.121799
v 0.145074 -0.471872 -0.074072
v 0.350890 0.331602 -0.141945
v 0.342949 0.332354 -0.172627
v 0.136395 0.621491 -0.125607
v 0.141901 0.622323 -0.095022
v 0.341465 -0.502044 -0.168612
v 0.349762 -0.502331 -0.135736
v 0.137782 -0.488337 -0.116838
v 0.142727 -0.488436 -0.088042
v 0.176666 0.461504 -0.148457
v 0.246694 0.386670 -0.164104
v 0.183677 0.364329 -0.142576
v 0.260398 0.387890 -0.108265
v 0.189573 0.462111 -0.094752
v 0.196803 0.366085 -0.088959
v 0.260829 0.397246 -0.153876
v 0.183014 0.480703 -0.138675
v 0.189789 0.480961 -0.108886
v 0.268116 0.397834 -0.123896
v 0.263871 -0.197412 -0.163261
v 0.263819 0.088912 -0.163321
v 0.134266 0.088924 -0.130741
v 0.134309 -0.197416 -0.130749
v 0.328440 0.088915 -0.182036
v 0.328739 -0.197420 -0.180464
v 0.277635 0.088922 -0.107503
v 0.277711 -0.197393 -0.107440
v 0.143978 -0.197407 -0.074056
v 0.144021 0.088925 -0.074063
v 0.343024 -0.197391 -0.124757
v 0.342750 0.088934 -0.126344
v 0.345690 -0.197618 -0.171082
v 0.346952 0.088686 -0.172586
v 0.354483 0.088697 -0.143405
v 0.353327 -0.197606 -0.141219
v -0.265566 -0.398753 -0.161671
v -0.265592 0.305016 -0.161673
v 0.000000 -0.398827 -0.116334
v 0.000000 0.305591 -0.116343
v -0.134297 -0.398776 -0.130746
v -0.134201 0.305403 -0.130730
v 0.000000 0.510546 -0.116322
v -0.110231 0.486850 -0.126851
v -0.326370 0.326817 -0.181784
v -0.124165 0.610160 -0.136372
v 0.000000 0.628012 -0.116294
v -0.326685 -0.484054 -0.177615
v 0.000000 -0.466236 -0.116334
v -0.135340 -0.471653 -0.130753
v -0.143991 -0.398880 -0.074058
v -0.279341 -0.398902 -0.105834
v -0.279315 0.306056 -0.105833
v -0.144086 0.305669 -0.074075
v 0.000000 0.305480 -0.059131
v 0.000000 -0.398829 -0.059140
v -0.119730 0.487079 -0.070130
v 0.000000 0.511052 -0.059152
v -0.340383 0.325282 -0.126027
v -0.133569 0.610836 -0.079638
v 0.000000 0.629080 -0.059179
v -0.340544 -0.484306 -0.121799
v 0.000000 -0.466240 -0.059140
v -0.145074 -0.471872 -0.074072
v -0.350890 0.331602 -0.141945
v -0.342949 0.332354 -0.172627
v 0.000000 0.644778 -0.073662
v 0.000000 0.643279 -0.103741
v -0.136395 0.621491 -0.125607
v -0.141901 0.622323 -0.095022
v -0.341465 -0.502044 -0.168612
v -0.349762 -0.502331 -0.135736
v -0.137782 -0.488337 -0.116838
v -0.142727 -0.488436 -0.088042
v 0.000000 -0.482702 -0.102465
v 0.000000 -0.482878 -0.073298
v -0.176666 0.461504 -0.148457
v -0.246694 0.386670 -0.164104
v -0.183677 0.364329 -0.142576
v -0.260398 0.387890 -0.108265
v -0.189573 0.462111 -0.094752
v -0.196803 0.366085 -0.088959
v -0.260829 0.397246 -0.153876
v -0.183014 0.480703 -0.138675
v -0.189789 0.480961 -0.108886
v -0.268116 0.397834 -0.123896
v -0.263871 -0.197412 -0.163261
v -0.263819 0.088912 -0.163321
v 0.000000 0.088924 -0.116338
v 0.000000 -0.197416 -0.116334
v -0.134266 0.088924 -0.130741
v -0.134309 -0.197416 -0.130749
v -0.328440 0.088915 -0.182036
v -0.328739 -0.197420 -0.180464
v -0.277635 0.088922 -0.107503
v -0.277711 -0.197393 -0.107440
v 0.000000 -0.197407 -0.059140
v 0.000000 0.088925 -0.059136
v -0.143978 -0.197407 -0.074056
v -0.144021 0.088925 -0.074063
v -0.343024 -0.197391 -0.124757
v -0.342750 0.088934 -0.126344
v -0.345690 -0.197618 -0.171082
v -0.346952 0.088686 -0.172586
v -0.354483 0.088697 -0.143405
v -0.353327 -0.197606 -0.141219
vt 0.500000 0.728316
vt 0.500000 1.000000
vt 0.750000 1.000000
vt 0.750000 0.728436
vt 0.500000 0.000000
vt 0.500000 0.261582
vt 0.750000 0.261546
vt 0.750000 0.000000
vt 0.500000 1.000000
vt 0.690967 0.981989
vt 0.041971 0.059649
vt 0.181834 0.258418
vt 0.181834 0.258418
vt 0.047637 0.067701
vt 0.000000 0.000000
vt 0.000000 0.000000
vt 0.000000 0.000000
vt 0.000000 0.000000
vt 0.131579 0.263158
vt 1.000000 0.261541
vt 1.000000 0.000000
vt 0.750000 0.000000
vt 0.500000 0.000000
vt 0.000000 0.000000
vt 1.000000 1.000000
vt 1.000000 0.728666
vt 0.000000 0.000000
vt 0.000000 0.000000
vt 0.000000 0.000000
vt 0.000000 0.000000
vt 0.000000 0.000000
vt 1.000000 0.261668
vt 1.000000 0.000000
vt 0.500000 0.000000
vt 0.750000 0.000000
vt 0.750000 0.261633
vt 0.500000 0.261597
vt 0.500000 1.000000
vt 0.750000 1.000000
vt 0.690967 0.981989
vt 0.500000 1.000000
vt 0.000000 0.000000
vt 0.000000 0.000000
vt 0.000000 0.000000
vt 0.000000 0.000000
vt 0.284234 0.378978
vt 0.181834 0.258418
vt 0.131579 0.263158
vt 0.500000 0.000000
vt 0.750000 0.000000
vt 0.500000 0.728388
vt 0.750000 0.728268
vt 0.000000 0.000000
vt 0.000000 0.000000
vt 1.000000 0.728015
vt 1.000000 1.000000
vt 0.291609 0.388812
vt 0.131579 0.263158
vt 0.750000 0.000000
vt 0.000000 0.000000
vt 0.181834 0.258418
vt 0.131579 0.263158
vt 0.500000 0.000000
vt 0.500000 0.000000
vt 0.750000 0.000000
vt 0.000000 0.000000
vt 0.000000 0.000000
vt 0.000000 0.000000
vt 0.047379 0.067334
vt 0.042778 0.060796
vt -0.041538 -0.059033
vt 0.000000 0.000000
vt 0.750000 0.728436
vt 0.750000 1.000000
vt 0.750000 0.000000
vt 0.750000 0.261546
vt 0.690967 0.981989
vt 0.041971 0.059649
vt 0.047637 0.067701
vt 0.181834 0.258418
vt 0.181834 0.258418
vt 0.000000 0.000000
vt 0.000000 0.000000
vt 0.000000 0.000000
vt 0.000000 0.000000
vt 1.000000 0.000000
vt 1.000000 0.261541
vt 0.750000 0.000000
vt 0.000000 0.000000
vt 1.000000 0.728666
vt 1.000000 1.000000
vt 0.000000 0.000000
vt 0.000000 0.000000
vt 0.000000 0.000000
vt 0.000000 0.000000
vt 1.000000 0.000000
vt 1.000000 0.261668
vt 0.000000 0.000000
vt 0.750000 0.261633
vt 0.750000 0.000000
vt 0.690967 0.981989
vt 0.750000 1.000000
vt 0.000000 0.000000
vt 0.000000 0.000000
vt 0.000000 0.000000
vt 0.000000 0.000000
vt 0.284234 0.378978
vt 0.181834 0.258418
vt 0.750000 0.000000
vt 0.750000 0.728268
vt 0.000000 0.000000
vt 0.000000 0.000000
vt 1.000000 1.000000
vt 1.000000 0.728015
vt 0.291609 0.388812
vt 0.750000 0.000000
vt 0.000000 0.000000
vt 0.181834 0.258418
vt 0.750000 0.000000
vt 0.000000 0.000000
vt 0.000000 0.000000
vt 0.000000 0.000000
vt 0.047379 0.067334
vt 0.042778 0.060796
vt -0.041538 -0.059033
vt 0.000000 0.000000
vn 0.0000 0.0000 -1.0000
vn 0.0000 0.0019 -1.0000
vn -0.1706 0.0004 -0.9853
vn -0.1737 0.0011 -0.9848
vn 0.0000 -0.0004 -1.0000
vn -0.1737 -0.0012 -0.9848
vn -0.1709 0.0001 -0.9853
vn 0.0000 -0.0162 -0.9998
vn -0.2074 -0.0288 -0.9778
vn -0.0399 0.1407 -0.9892
vn 0.1068 0.3196 -0.9415
vn 0.5164 0.7007 -0.4922
vn 0.6776 0.4395 -0.5896
vn 0.1231 0.1811 -0.9757
vn -0.0388 0.1923 -0.9806
vn 0.4896 0.6695 -0.5586
vn 0.7067 0.4093 -0.5770
vn 0.0000 0.3828 -0.9238
vn -0.2518 -0.0041 -0.9678
vn -0.2450 -0.0025 -0.9695
vn -0.1803 -0.3354 -0.9246
vn 0.0000 -0.3447 -0.9387
vn 0.0593 -0.2516 -0.9660
vn -0.2720 -0.0312 -0.9618
vn -0.2610 0.0013 -0.9653
vn 0.1188 -0.0081 -0.9929
vn 0.7910 -0.0109 -0.6117
vn 0.4835 -0.6780 -0.5536
vn 0.5023 -0.2422 0.8300
vn 0.5905 0.0034 0.8070
vn 0.2512 0.0041 0.9679
vn 0.2445 0.0024 0.9696
vn 0.0000 0.0003 1.0000
vn 0.1687 -0.0002 0.9857
vn 0.1714 0.0012 0.9852
vn 0.0000 0.0000 1.0000
vn 0.0000 -0.0020 1.0000
vn 0.1734 0.0052 0.9848
vn 0.2154 0.0287 0.9761
vn 0.0000 0.0162 0.9998
vn 0.8954 0.4083 0.1779
vn 0.6807 0.6851 0.2593
vn 0.4495 0.3053 0.8395
vn 0.5891 0.2065 0.7812
vn 0.2615 0.0493 0.9639
vn 0.4430 0.3647 0.8189
vn 0.0000 0.4122 0.9111
vn 0.0000 -0.3308 0.9437
vn 0.1437 -0.3271 0.9340
vn 0.1715 -0.0011 0.9852
vn 0.6855 -0.6800 0.2600
vn 0.9869 -0.0054 0.1610
vn 0.2604 -0.0013 0.9655
vn 0.2666 0.0342 0.9632
vn -0.2582 -0.0384 -0.9653
vn 0.0000 0.9218 -0.3877
vn -0.1205 -0.9073 -0.4027
vn 0.5934 0.0026 0.8049
vn 0.6606 0.7127 0.2356
vn 0.0000 0.9273 0.3744
vn 0.0000 -0.9159 -0.4014
vn 0.0000 -0.8956 0.4449
vn 0.0298 -0.8945 0.4461
vn 0.9863 0.0056 0.1650
vn 0.1015 0.0005 -0.9948
vn 0.7859 0.0030 -0.6183
vn 0.8681 0.4516 0.2059
vn 0.5161 0.2299 0.8251
vn 0.1737 0.0011 -0.9848
vn 0.1706 0.0004 -0.9853
vn 0.1709 0.0001 -0.9853
vn 0.1737 -0.0012 -0.9848
vn 0.2074 -0.0288 -0.9778
vn 0.0399 0.1407 -0.9892
vn -0.6776 0.4395 -0.5896
vn -0.5164 0.7007 -0.4922
vn -0.1068 0.3196 -0.9415
vn -0.1231 0.1811 -0.9757
vn -0.7067 0.4093 -0.5770
vn -0.4896 0.6695 -0.5586
vn 0.0388 0.1923 -0.9806
vn 0.2450 -0.0025 -0.9695
vn 0.2518 -0.0041 -0.9678
vn 0.1803 -0.3354 -0.9246
vn -0.0593 -0.2516 -0.9660
vn 0.2610 0.0013 -0.9653
vn 0.2720 -0.0312 -0.9618
vn -0.4835 -0.6780 -0.5536
vn -0.7910 -0.0109 -0.6117
vn -0.1188 -0.0081 -0.9929
vn -0.5023 -0.2422 0.8300
vn -0.2445 0.0024 0.9696
vn -0.2512 0.0041 0.9679
vn -0.5905 0.0034 0.8070
vn -0.1714 0.0012 0.9852
vn -0.1687 -0.0002 0.9857
vn -0.2154 0.0287 0.9761
vn -0.1734 0.0052 0.9848
vn -0.8954 0.4083 0.1779
vn -0.5891 0.2065 0.7812
vn -0.4495 0.3053 0.8395
vn -0.6807 0.6851 0.2593
vn -0.2615 0.0493 0.9639
vn -0.4430 0.3647 0.8189
vn -0.1437 -0.3271 0.9340
vn -0.1715 -0.0011 0.9852
vn -0.6855 -0.6800 0.2600
vn -0.9869 -0.0054 0.1610
vn -0.2666 0.0342 0.9632
vn -0.2604 -0.0013 0.9655
vn 0.2582 -0.0384 -0.9653
vn 0.1205 -0.9073 -0.4027
vn -0.5934 0.0026 0.8049
vn -0.6606 0.7127 0.2356
vn -0.0298 -0.8945 0.4461
vn -0.9863 0.0056 0.1650
vn -0.1015 0.0005 -0.9948
vn -0.7859 0.0030 -0.6183
vn -0.8681 0.4516 0.2059
vn -0.5161 0.2299 0.8251
usemtl None
s 1
f 105/1/1 56/2/2 4/3/3 39/4/4
f 55/5/5 106/6/1 40/7/6 3/8/7
f 56/2/2 59/9/8 5/10/9 4/3/3
f 27/11/10 7/12/11 21/13/12 34/14/13
f 6/15/14 28/16/15 33/17/16 20/18/17
f 59/9/8 63/19/18 7/12/11 5/10/9
f 3/8/7 40/7/6 37/20/19 1/21/20
f 3/8/7 9/22/21 65/23/22 55/5/5
f 3/8/7 1/21/20 8/24/23 9/22/21
f 39/4/4 4/3/3 2/25/24 38/26/25
f 8/24/23 42/27/26 49/28/27 23/29/28
f 8/24/23 1/21/20 37/20/19 42/27/26
f 17/30/29 47/31/30 44/32/31 11/33/32
f 72/34/33 10/35/34 45/36/35 113/37/36
f 71/38/37 13/39/38 14/40/39 74/41/40
f 19/42/41 36/43/42 30/44/43 15/45/44
f 14/40/39 13/39/38 32/46/45
f 74/41/40 14/40/39 16/47/46 77/48/47
f 10/35/34 11/33/32 44/32/31 45/36/35
f 10/35/34 72/34/33 79/49/48 18/50/49
f 10/35/34 18/50/49 17/30/29 11/33/32
f 114/51/36 46/52/50 13/39/38 71/38/37
f 24/53/51 52/54/52 47/31/30 17/30/29
f 46/52/50 43/55/53 12/56/54 13/39/38
f 5/10/9 7/12/11 27/11/10 29/57/55
f 7/12/11 63/19/18 84/58/56 21/13/12
f 9/22/21 8/24/23 23/29/28 25/59/57
f 48/60/58 15/45/44 12/56/54 43/55/53
f 22/61/59 83/62/60 77/48/47 16/47/46
f 65/23/22 9/22/21 25/59/57 91/63/61
f 92/64/62 26/65/63 18/50/49 79/49/48
f 26/65/63 24/53/51 17/30/29 18/50/49
f 51/66/64 19/42/41 15/45/44 48/60/58
f 41/67/65 6/15/14 20/18/17 50/68/66
f 22/61/59 35/69/67 34/14/13 21/13/12
f 12/56/54 32/46/45 13/39/38
f 19/42/41 51/66/64 50/68/66 20/18/17
f 26/65/63 92/64/62 91/63/61 25/59/57
f 24/53/51 26/65/63 25/59/57 23/29/28
f 16/47/46 14/40/39 32/46/45 31/70/68
f 36/43/42 19/42/41 20/18/17 33/17/16
f 83/62/60 22/61/59 21/13/12 84/58/56
f 52/54/52 24/53/51 23/29/28 49/28/27
f 35/69/67 22/61/59 16/47/46 31/70/68
f 27/11/10 28/71/15 29/57/55
f 30/44/43 31/72/68 32/46/45
f 34/14/13 35/69/67 36/43/42 33/17/16
f 35/69/67 31/70/68 30/44/43 36/43/42
f 27/11/10 34/14/13 33/17/16 28/16/15
f 2/25/24 4/3/3 29/57/55
f 15/45/44 30/44/43 32/46/45 12/56/54
f 6/15/14 2/25/24 29/57/55 28/16/15
f 4/3/3 5/10/9 29/57/55
f 42/27/26 37/20/19 38/26/25 41/67/65
f 40/7/6 106/6/1 105/1/1 39/4/4
f 37/20/19 40/7/6 39/4/4 38/26/25
f 48/60/58 43/55/53 44/32/31 47/31/30
f 46/52/50 114/51/36 113/37/36 45/36/35
f 43/55/53 46/52/50 45/36/35 44/32/31
f 50/68/66 51/66/64 52/54/52 49/28/27
f 49/28/27 42/27/26 41/67/65 50/68/66
f 47/31/30 52/54/52 51/66/64 48/60/58
f 41/67/65 38/26/25 2/25/24 6/15/14
f 105/1/1 107/73/69 58/74/70 56/2/2
f 55/5/5 57/75/71 108/76/72 106/6/1
f 56/2/2 58/74/70 60/77/73 59/9/8
f 93/78/74 100/79/75 85/80/76 62/81/77
f 61/82/78 82/83/79 99/84/80 94/85/81
f 59/9/8 60/77/73 62/81/77 63/19/18
f 57/75/71 53/86/82 103/87/83 108/76/72
f 57/75/71 55/5/5 65/23/22 66/88/84
f 57/75/71 66/88/84 64/89/85 53/86/82
f 107/73/69 104/90/86 54/91/87 58/74/70
f 64/89/85 87/92/88 119/93/89 110/94/90
f 64/89/85 110/94/90 103/87/83 53/86/82
f 78/95/91 68/96/92 112/97/93 117/98/94
f 72/34/33 113/37/36 115/99/95 67/100/96
f 71/38/37 74/41/40 73/101/97 70/102/98
f 81/103/99 75/104/100 96/105/101 102/106/102
f 73/101/97 98/107/103 70/102/98
f 74/41/40 77/48/47 76/108/104 73/101/97
f 67/100/96 115/99/95 112/97/93 68/96/92
f 67/100/96 80/109/105 79/49/48 72/34/33
f 67/100/96 68/96/92 78/95/91 80/109/105
f 114/51/36 71/38/37 70/102/98 116/110/106
f 88/111/107 78/95/91 117/98/94 122/112/108
f 116/110/106 70/102/98 69/113/109 111/114/110
f 60/77/73 95/115/111 93/78/74 62/81/77
f 62/81/77 85/80/76 84/58/56 63/19/18
f 66/88/84 89/116/112 87/92/88 64/89/85
f 118/117/113 111/114/110 69/113/109 75/104/100
f 86/118/114 76/108/104 77/48/47 83/62/60
f 65/23/22 91/63/61 89/116/112 66/88/84
f 92/64/62 79/49/48 80/109/105 90/119/115
f 90/119/115 80/109/105 78/95/91 88/111/107
f 121/120/116 118/117/113 75/104/100 81/103/99
f 109/121/117 120/122/118 82/83/79 61/82/78
f 86/118/114 85/80/76 100/79/75 101/123/119
f 69/113/109 70/102/98 98/107/103
f 81/103/99 82/83/79 120/122/118 121/120/116
f 90/119/115 89/116/112 91/63/61 92/64/62
f 88/111/107 87/92/88 89/116/112 90/119/115
f 76/108/104 97/124/120 98/107/103 73/101/97
f 102/106/102 99/84/80 82/83/79 81/103/99
f 83/62/60 84/58/56 85/80/76 86/118/114
f 122/112/108 119/93/89 87/92/88 88/111/107
f 101/123/119 97/124/120 76/108/104 86/118/114
f 93/78/74 95/115/111 94/125/81
f 96/105/101 98/107/103 97/126/120
f 100/79/75 99/84/80 102/106/102 101/123/119
f 101/123/119 102/106/102 96/105/101 97/124/120
f 93/78/74 94/85/81 99/84/80 100/79/75
f 54/91/87 95/115/111 58/74/70
f 75/104/100 69/113/109 98/107/103 96/105/101
f 61/82/78 94/85/81 95/115/111 54/91/87
f 58/74/70 95/115/111 60/77/73
f 110/94/90 109/121/117 104/90/86 103/87/83
f 108/76/72 107/73/69 105/1/1 106/6/1
f 103/87/83 104/90/86 107/73/69 108/76/72
f 118/117/113 117/98/94 112/97/93 111/114/110
f 116/110/106 115/99/95 113/37/36 114/51/36
f 111/114/110 112/97/93 115/99/95 116/110/106
f 120/122/118 119/93/89 122/112/108 121/120/116
f 119/93/89 120/122/118 109/121/117 110/94/90
f 117/98/94 118/117/113 121/120/116 122/112/108
f 109/121/117 61/82/78 54/91/87 104/90/86
