# Blender v2.91.0 OBJ File: ''
# www.blender.org
mtllib Wall_weak.mtl
g Wall_frag_1_Cube.001
v -0.202905 1.079643 0.173081
v -1.000000 0.760134 0.173081
v -0.094047 1.713433 0.173081
v -1.000000 1.713433 0.173081
v -1.000000 0.760134 -0.066382
v -1.000000 1.713433 -0.066382
v -0.094047 1.713433 -0.066382
v -0.202905 1.079643 -0.066382
vt 0.555454 1.000000
vt 0.578763 0.900363
vt 0.625000 0.886756
vt 0.625000 1.000000
vt 0.555454 1.000000
vt 0.625000 1.000000
vt 0.625000 0.886756
vt 0.578763 0.900363
vn -0.0000 0.0000 1.0000
vn 0.0000 0.0000 -1.0000
vn 0.9856 -0.1693 0.0000
vn -1.0000 0.0000 0.0000
vn 0.3721 -0.9282 0.0000
vn 0.0000 1.0000 0.0000
usemtl Material
s off
f 2/1/1 1/2/1 3/3/1 4/4/1
f 5/5/2 6/6/2 7/7/2 8/8/2
f 1/2/3 8/8/3 7/7/3 3/3/3
f 4/4/4 6/6/4 5/5/4 2/1/4
f 2/1/5 5/5/5 8/8/5 1/2/5
f 3/3/6 7/7/6 6/6/6 4/4/6
g Wall_frag_2_Cube.002
v 1.000000 0.550998 0.173081
v -0.202905 1.079643 0.173081
v 1.000000 1.713433 0.173081
v -0.094047 1.713433 0.173081
v 0.490378 0.560920 0.173081
v 0.490378 0.560920 -0.066382
v 1.000000 0.550998 -0.066382
v -0.202905 1.079643 -0.066382
v 1.000000 1.713433 -0.066382
v -0.094047 1.713433 -0.066382
vt 0.578763 0.900363
vt 0.540921 0.813703
vt 0.540197 0.750000
vt 0.625000 0.750000
vt 0.625000 0.886756
vt 0.578763 0.900363
vt 0.625000 0.886756
vt 0.625000 0.750000
vt 0.540197 0.750000
vt 0.540921 0.813703
vn 0.0000 0.0000 1.0000
vn -0.0000 0.0000 -1.0000
vn 0.0000 1.0000 0.0000
vn 1.0000 0.0000 0.0000
vn -0.0195 -0.9998 0.0000
vn -0.9856 0.1693 0.0000
vn -0.5991 -0.8007 0.0000
usemtl Material
s off
f 10/9/7 13/10/7 9/11/7 11/12/7 12/13/7
f 16/14/8 18/15/8 17/16/8 15/17/8 14/18/8
f 11/12/9 17/16/9 18/15/9 12/13/9
f 9/11/10 15/17/10 17/16/10 11/12/10
f 13/10/11 14/18/11 15/17/11 9/11/11
f 12/13/12 18/15/12 16/14/12 10/9/12
f 10/9/13 16/14/13 14/18/13 13/10/13
g Wall_frag_3_Cube.003
v -0.202905 1.079643 0.173081
v -1.000000 0.760134 0.173081
v 0.490378 0.560920 0.173081
v -1.000000 -0.141741 0.173081
v 0.026162 -0.177878 0.173081
v -0.426168 -0.161949 0.173081
v -0.202905 1.079643 -0.066382
v 0.490378 0.560920 -0.066382
v -1.000000 0.760134 -0.066382
v -1.000000 -0.141741 -0.066382
v 0.026162 -0.177878 -0.066382
v -0.426168 -0.161949 -0.066382
vt 0.489660 1.000000
vt 0.488185 0.928271
vt 0.487023 0.871730
vt 0.540921 0.813703
vt 0.578763 0.900363
vt 0.555454 1.000000
vt 0.489660 1.000000
vt 0.555454 1.000000
vt 0.578763 0.900363
vt 0.540921 0.813703
vt 0.487023 0.871730
vt 0.488185 0.928271
vn -0.0000 0.0000 1.0000
vn -0.0000 0.0000 -1.0000
vn -0.0352 -0.9994 0.0000
vn -1.0000 0.0000 0.0000
vn 0.5991 0.8007 0.0000
vn 0.8467 -0.5320 0.0000
vn -0.3721 0.9282 0.0000
usemtl Material
s off
f 22/19/14 24/20/14 23/21/14 21/22/14 19/23/14 20/24/14
f 28/25/15 27/26/15 25/27/15 26/28/15 29/29/15 30/30/15
f 22/19/16 28/25/16 30/30/16 24/20/16
f 20/24/17 27/26/17 28/25/17 22/19/17
f 21/22/18 26/28/18 25/27/18 19/23/18
f 24/20/16 30/30/16 29/29/16 23/21/16
f 23/21/19 29/29/19 26/28/19 21/22/19
f 19/23/20 25/27/20 27/26/20 20/24/20
g Wall_frag_4_Cube.004
v 1.000000 0.550998 0.173081
v 0.490378 0.560920 0.173081
v 0.026162 -0.177878 0.173081
v 1.000000 -0.332789 0.173081
v 0.490378 0.560920 -0.066382
v 1.000000 0.550998 -0.066382
v 0.026162 -0.177878 -0.066382
v 1.000000 -0.332789 -0.066382
vt 0.487023 0.871730
vt 0.475722 0.750000
vt 0.540197 0.750000
vt 0.540921 0.813703
vt 0.487023 0.871730
vt 0.540921 0.813703
vt 0.540197 0.750000
vt 0.475722 0.750000
vn 0.0000 0.0000 1.0000
vn -0.0000 0.0000 -1.0000
vn -0.1571 -0.9876 0.0000
vn -0.8467 0.5320 0.0000
vn 1.0000 0.0000 0.0000
vn 0.0195 0.9998 0.0000
usemtl Material
s off
f 33/31/21 34/32/21 31/33/21 32/34/21
f 37/35/22 35/36/22 36/37/22 38/38/22
f 33/31/23 37/35/23 38/38/23 34/32/23
f 32/34/24 35/36/24 37/35/24 33/31/24
f 34/32/25 38/38/25 36/37/25 31/33/25
f 31/33/26 36/37/26 35/36/26 32/34/26
g Wall_frag_5_Cube.005
v 0.026162 -0.177878 0.173081
v -0.426168 -0.161949 0.173081
v -0.009908 -1.006380 0.173081
v 1.000000 -0.769481 0.173081
v 1.000000 -0.332789 0.173081
v 0.026162 -0.177878 -0.066382
v -0.426168 -0.161949 -0.066382
v -0.009908 -1.006380 -0.066382
v 1.000000 -0.332789 -0.066382
v 1.000000 -0.769481 -0.066382
vt 0.426582 0.876238
vt 0.443864 0.750000
vt 0.475722 0.750000
vt 0.487023 0.871730
vt 0.488185 0.928271
vt 0.426582 0.876238
vt 0.488185 0.928271
vt 0.487023 0.871730
vt 0.475722 0.750000
vt 0.443864 0.750000
vn 0.0000 0.0000 1.0000
vn 0.0000 0.0000 -1.0000
vn 1.0000 0.0000 0.0000
vn 0.0352 0.9994 0.0000
vn 0.2284 -0.9736 0.0000
vn -0.8969 -0.4421 0.0000
vn 0.1571 0.9876 0.0000
usemtl Material
s off
f 41/39/27 42/40/27 43/41/27 39/42/27 40/43/27
f 46/44/28 45/45/28 44/46/28 47/47/28 48/48/28
f 42/40/29 48/48/29 47/47/29 43/41/29
f 39/42/30 44/46/30 45/45/30 40/43/30
f 41/39/31 46/44/31 48/48/31 42/40/31
f 40/43/32 45/45/32 46/44/32 41/39/32
f 43/41/33 47/47/33 44/46/33 39/42/33
g Wall_frag_6_Cube.006
v -1.000000 -1.713433 0.173081
v -1.000000 -0.141741 0.173081
v 0.077885 -1.713433 0.173081
v -0.426168 -0.161949 0.173081
v -0.009908 -1.006380 0.173081
v -1.000000 -1.713433 -0.066382
v -1.000000 -0.141741 -0.066382
v -0.426168 -0.161949 -0.066382
v 0.077885 -1.713433 -0.066382
v -0.009908 -1.006380 -0.066382
vt 0.375000 0.865264
vt 0.426582 0.876238
vt 0.488185 0.928271
vt 0.489660 1.000000
vt 0.375000 1.000000
vt 0.375000 0.865264
vt 0.375000 1.000000
vt 0.489660 1.000000
vt 0.488185 0.928271
vt 0.426582 0.876238
vn 0.0000 0.0000 1.0000
vn -0.0000 0.0000 -1.0000
vn 0.0000 -1.0000 0.0000
vn -1.0000 0.0000 0.0000
vn 0.8969 0.4421 0.0000
vn 0.0352 0.9994 0.0000
vn 0.9924 0.1232 0.0000
usemtl Material
s off
f 51/49/34 53/50/34 52/51/34 50/52/34 49/53/34
f 57/54/35 54/55/35 55/56/35 56/57/35 58/58/35
f 49/53/36 54/55/36 57/54/36 51/49/36
f 50/52/37 55/56/37 54/55/37 49/53/37
f 53/50/38 58/58/38 56/57/38 52/51/38
f 52/51/39 56/57/39 55/56/39 50/52/39
f 51/49/40 57/54/40 58/58/40 53/50/40
g Wall_frag_7_Cube.007
v 1.000000 -1.713433 0.173081
v 0.077885 -1.713433 0.173081
v -0.009908 -1.006380 0.173081
v 1.000000 -0.769481 0.173081
v 1.000000 -0.769481 -0.066382
v 1.000000 -1.713433 -0.066382
v 0.077885 -1.713433 -0.066382
v -0.009908 -1.006380 -0.066382
vt 0.375000 0.750000
vt 0.443864 0.750000
vt 0.426582 0.876238
vt 0.375000 0.865264
vt 0.375000 0.750000
vt 0.375000 0.865264
vt 0.426582 0.876238
vt 0.443864 0.750000
vn 0.0000 0.0000 1.0000
vn -0.0000 0.0000 -1.0000
vn -0.9924 -0.1232 0.0000
vn 1.0000 0.0000 0.0000
vn -0.2284 0.9736 0.0000
vn 0.0000 -1.0000 0.0000
usemtl Material
s off
f 59/59/41 62/60/41 61/61/41 60/62/41
f 64/63/42 65/64/42 66/65/42 63/66/42
f 61/61/43 66/65/43 65/64/43 60/62/43
f 59/59/44 64/63/44 63/66/44 62/60/44
f 62/60/45 63/66/45 66/65/45 61/61/45
f 60/62/46 65/64/46 64/63/46 59/59/46
